<svg xmlns="http://www.w3.org/2000/svg" viewBox="0 0 1200 800" fill="none">
  <defs>
    <linearGradient id="bg" x1="0%" y1="0%" x2="100%" y2="100%">
      <stop offset="0%" style="stop-color:#0f172a;stop-opacity:1" />
      <stop offset="50%" style="stop-color:#1e293b;stop-opacity:1" />
      <stop offset="100%" style="stop-color:#0f172a;stop-opacity:1" />
    </linearGradient>
    <linearGradient id="car" x1="0%" y1="0%" x2="100%" y2="0%">
      <stop offset="0%" style="stop-color:#3b82f6;stop-opacity:1" />
      <stop offset="100%" style="stop-color:#8b5cf6;stop-opacity:1" />
    </linearGradient>
  </defs>
  <rect width="1200" height="800" fill="url(#bg)"/>
  <circle cx="200" cy="150" r="100" fill="#3b82f6" opacity="0.1"/>
  <circle cx="1000" cy="600" r="150" fill="#8b5cf6" opacity="0.1"/>
  <g transform="translate(300, 300)">
    <path d="M50 200 L150 100 L450 100 L550 200 L580 200 L580 280 L20 280 L20 200 Z" fill="url(#car)" opacity="0.8"/>
    <rect x="80" y="120" width="120" height="80" rx="10" fill="#1e293b" opacity="0.6"/>
    <rect x="400" y="120" width="100" height="80" rx="10" fill="#1e293b" opacity="0.6"/>
    <circle cx="120" cy="280" r="40" fill="#334155"/>
    <circle cx="120" cy="280" r="25" fill="#64748b"/>
    <circle cx="480" cy="280" r="40" fill="#334155"/>
    <circle cx="480" cy="280" r="25" fill="#64748b"/>
    <rect x="250" y="90" width="100" height="10" rx="5" fill="#3b82f6" opacity="0.6"/>
  </g>
  <text x="600" y="500" font-family="Arial, sans-serif" font-size="48" fill="#94a3b8" text-anchor="middle" opacity="0.5">CarLocation</text>
</svg>
